<?xml version="1.0" ?><svg enable-background="new 0 0 515.91 728.5" height="512" id="Layer_1" version="1.1" viewBox="0 0 512.00003 512" width="512" xml:space="preserve" xmlns="http://www.w3.org/2000/svg" xmlns:cc="http://creativecommons.org/ns#" xmlns:dc="http://purl.org/dc/elements/1.1/" xmlns:inkscape="http://www.inkscape.org/namespaces/inkscape" xmlns:rdf="http://www.w3.org/1999/02/22-rdf-syntax-ns#" xmlns:sodipodi="http://sodipodi.sourceforge.net/DTD/sodipodi-0.dtd" xmlns:svg="http://www.w3.org/2000/svg"><defs id="defs7"><filter height="1.2467411" id="filter3934" width="1.2336175" x="-0.11680874" y="-0.12337053"><feGaussianBlur id="feGaussianBlur3936" stdDeviation="24.335155"/></filter></defs><g id="g8178" transform="matrix(0.93749998,0,0,0.93749998,-4835.1685,-5662.7012)"><path d="m 5430.1959,6057.2837 c -12.1692,0.1362 -23.9697,6.4596 -30.6247,17.6962 -10.1412,17.1217 -4.4818,39.2048 12.6402,49.3457 l 0.256,0.1598 c 17.1047,9.9392 39.0397,4.222 49.1212,-12.8003 10.1411,-17.1207 4.4818,-39.2028 -12.6403,-49.3447 -5.8857,-3.4858 -12.3781,-5.1294 -18.7524,-5.0567 z m -190.0207,111.8113 c -12.1692,0.1362 -23.9696,6.4278 -30.6248,17.6644 -10.141,17.1227 -4.4817,39.2345 12.6404,49.3764 l 0.256,0.1598 c 17.1046,9.9392 39.0079,4.221 49.0892,-12.8003 10.1411,-17.1217 4.4816,-39.2356 -12.6403,-49.3765 -5.8857,-3.4857 -12.3461,-5.0955 -18.7205,-5.0238 z m 380.0733,0 c -12.1693,0.1362 -23.9697,6.4278 -30.6248,17.6644 -10.1411,17.1227 -4.4816,39.2345 12.6403,49.3764 l 0.256,0.1598 c 17.1048,9.9392 39.0077,4.221 49.0893,-12.8003 10.141,-17.1217 4.4817,-39.2356 -12.6404,-49.3765 -5.8855,-3.4857 -12.3461,-5.0955 -18.7204,-5.0238 z m -380.0733,216.1645 c -12.1692,0.1372 -23.9696,6.4288 -30.6248,17.6644 -10.141,17.1227 -4.4817,39.2365 12.6404,49.3774 l 0.256,0.128 c 17.1046,9.9403 39.0079,4.2518 49.0892,-12.7685 10.1411,-17.1217 4.4816,-39.2355 -12.6403,-49.3765 -5.8857,-3.4857 -12.3461,-5.0965 -18.7205,-5.0248 z m 380.0733,0 c -12.1693,0.1372 -23.9697,6.4288 -30.6248,17.6644 -10.1411,17.1227 -4.4816,39.2365 12.6403,49.3774 l 0.256,0.128 c 17.1048,9.9403 39.0077,4.2518 49.0893,-12.7685 10.141,-17.1217 4.4817,-39.2355 -12.6404,-49.3765 -5.8855,-3.4857 -12.3461,-5.0965 -18.7204,-5.0248 z m -190.0526,111.9392 c -12.1692,0.1372 -23.9697,6.4288 -30.6247,17.6644 -10.1412,17.1227 -4.4818,39.2366 12.6402,49.3764 l 0.256,0.1608 c 17.1047,9.9392 39.0397,4.22 49.1212,-12.8003 10.1411,-17.1227 4.4818,-39.2058 -12.6403,-49.3457 -5.8857,-3.4868 -12.3781,-5.1273 -18.7524,-5.0556 z" id="path9265-5" style="fill:#37484a;fill-opacity:1;stroke:none"/><path d="m 5478.6433,6107.6195 c -1.5342,5.3024 -3.8384,10.3795 -6.9119,14.9119 l 104.1266,60.0959 c 2.5397,-4.8815 5.7869,-9.4282 9.6317,-13.3451 l -106.8464,-61.6627 z m -96.6387,0.2878 -106.1745,61.2797 c 0.8343,0.8161 1.6542,1.6507 2.432,2.5283 3.1342,3.1909 5.6439,6.7698 7.5839,10.6232 l 103.4545,-59.7426 c -2.3949,-3.2718 -4.3697,-6.8497 -5.7919,-10.7205 -0.5798,-1.3067 -1.0666,-2.6338 -1.504,-3.9681 z m 40.1595,34.9438 -0.32,65.5355 c 2.2216,-0.1566 4.445,-0.2324 6.6879,-0.2242 3.6022,-0.092 7.2082,0.02 10.7838,0.3205 l -0.2879,-65.1833 c -5.5583,0.8008 -11.2849,0.6206 -16.8638,-0.4485 z m -134.1102,78.4311 c -1.7812,5.3833 -4.3917,10.4747 -7.7758,14.9764 l 55.2312,32.2229 c 2.5659,-5.2194 5.5745,-10.2228 8.9599,-14.9763 l -56.4153,-32.223 z m 284.5721,0.2877 -55.5513,31.712 c 3.3049,4.8007 6.1681,9.8942 8.608,15.1996 l 55.1032,-32.1595 c -2.8683,-3.5287 -5.235,-7.4651 -6.9119,-11.7762 -0.4611,-0.9821 -0.8695,-1.9754 -1.248,-2.9759 z m -344.2193,32.1913 0,118.3343 c 2.6923,-0.6493 5.4509,-1.0405 8.288,-1.151 2.708,-0.2028 5.4148,-0.1772 8.0958,0.061 l 0,-115.5182 c -5.4786,0.297 -11.0243,-0.3164 -16.3838,-1.7286 z m 404.3465,0.641 c -5.3422,1.2002 -10.8928,1.4388 -16.3838,0.8315 l 0,115.7425 c 0.1283,0 0.2555,-0.031 0.384,-0.031 5.4023,-0.4045 10.8169,0.092 15.9998,1.407 l 0,-117.9492 z m -297.1159,103.6139 -55.1352,32.1595 c 3.6653,4.4187 6.3032,9.4999 7.9998,14.8791 l 55.9673,-31.967 c -3.3427,-4.7904 -6.2979,-9.8163 -8.8319,-15.0716 z m 190.1734,0.1915 c -2.4075,5.3147 -5.3252,10.356 -8.6399,15.1034 l 55.8072,31.9045 c 1.9297,-5.2829 4.7155,-10.2792 8.1598,-14.7521 l -55.3271,-32.2558 z m -103.9666,59.8082 0.288,65.2785 c 1.5112,-0.2253 3.0558,-0.3574 4.608,-0.4168 4.1337,-0.2877 8.2551,-0.041 12.2878,0.6728 l 0.2879,-65.5345 c -5.8021,0.5171 -11.641,0.5089 -17.4717,0 z m -136.4461,26.0154 c -2.3992,4.9716 -5.5745,9.5275 -9.4719,13.4075 l 106.4306,61.4712 c 1.7026,-5.1938 4.2248,-10.1675 7.3918,-14.6548 l -104.3505,-60.2239 z m 290.044,0.1597 -103.5826,59.7754 c 3.3579,4.4637 5.7332,9.4804 7.2,14.7839 l 106.3664,-61.4077 c -4.0575,-3.7674 -7.4841,-8.1759 -9.9838,-13.1516 z" id="path9285-6" style="font-size:medium;font-style:normal;font-variant:normal;font-weight:normal;font-stretch:normal;text-indent:0;text-align:start;text-decoration:none;line-height:normal;letter-spacing:normal;word-spacing:normal;text-transform:none;direction:ltr;block-progression:tb;writing-mode:lr-tb;text-anchor:start;baseline-shift:baseline;color:#000000;fill:#37484a;fill-opacity:1;stroke:none;stroke-width:13.83337116;marker:none;visibility:visible;display:inline;overflow:visible;enable-background:accumulate;font-family:Sans;-inkscape-font-specification:Sans"/><path d="m 5521.5657,6313.0338 c -0.07,-23.2003 -8.9499,-46.3986 -26.6386,-64.0876 -17.7653,-17.7658 -41.0704,-26.639 -64.3547,-26.639 -23.2851,0 -46.5655,8.8732 -64.3308,26.639 -35.5306,35.5306 -35.5306,93.13 0,128.6606 35.5306,35.5316 93.1542,35.5316 128.6855,0 l 0.3632,-0.3636 c 17.5813,-17.7955 26.341,-41.007 26.2754,-64.2094 z m -58.4162,-27.4869 c 0,14.9416 -10.3551,27.6169 -24.2391,31.1713 l 0,48.4538 a 7.9169201,7.9169201 0 1 1 -15.8285,0 l 0,-8.6038 -17.0646,0 a 7.9169201,7.9169201 0 1 1 0,-15.8284 l 17.0646,0 0,-24.0216 c -13.8842,-3.5533 -24.2392,-16.2297 -24.2392,-31.1713 0,-17.6685 14.472,-32.1646 32.1415,-32.1646 17.6694,0 32.1653,14.4961 32.1653,32.1646 z m -15.8285,0 c 0,-9.1118 -7.2241,-16.3362 -16.3368,-16.3362 -9.1121,0 -16.313,7.2244 -16.313,16.3362 0,8.4677 6.205,15.3164 14.3978,16.24 a 7.9169201,7.9169201 0 0 1 1.7938,-0.2662 7.9169201,7.9169201 0 0 1 2.0604,0.2662 c 8.1789,-0.937 14.3978,-7.7826 14.3978,-16.24 z" id="path8147-9" style="fill:#1b8e99;fill-opacity:1;fill-rule:nonzero;stroke:none"/></g></svg>